<svg width="42" height="50" viewBox="0 0 42 50" fill="none" xmlns="http://www.w3.org/2000/svg">
<path d="M0.584595 44.9353C0.845718 44.3371 1.54193 44.0641 2.14086 44.3249C3.48228 44.9107 4.94397 45.4211 6.4955 45.8579C7.55317 43.6071 8.25817 41.0448 8.59631 38.2231C8.55239 38.1306 8.51591 38.0333 8.49666 37.9276L1.91589 1.4656C1.86015 1.15684 1.68652 2.66578e-05 1.68652 2.66578e-05C1.68652 2.66578e-05 2.20215 0 2.8584 2.66578e-05C6.55042 2.66578e-05 9.00066 1.61322 9.56547 4.74095L12.022 18.3518L15.1852 20.3114C18.7484 22.5189 22.848 23.6861 27.0398 23.6861H35.2045C35.5303 23.6861 35.5303 26.0507 35.2045 26.0507H31.5191L32.1592 32.192C34.4972 32.927 36.198 35.1143 36.198 37.6918C36.198 37.9754 36.198 38.8741 36.198 38.8741C36.198 38.8741 35.3851 38.8741 35.0157 38.8741H32.9487C33.1419 41.2597 33.8891 44.0094 35.0427 45.5738C36.776 45.039 38.3782 44.4104 39.797 43.6905C40.3793 43.3949 41.0911 43.6274 41.3863 44.2097C41.6819 44.7924 41.4495 45.5039 40.8668 45.7991C39.1582 46.6659 37.2111 47.4104 35.0968 48.0239C35.014 48.058 34.9282 48.081 34.841 48.0955C30.5009 49.3248 25.469 50 20.2948 50C13.158 50 6.3749 48.7542 1.19433 46.4916C0.596416 46.2305 0.323135 45.5339 0.584595 44.9353ZM13.9394 22.3213L12.5871 21.4836L14.4721 31.9278H17.033L17.7829 24.2647C16.454 23.7317 15.168 23.0824 13.9394 22.3213ZM27.0398 26.0507C24.6718 26.0507 22.3308 25.7115 20.0817 25.0562L19.4091 31.9278H29.7547L29.1419 26.051L27.0398 26.0507ZM30.4344 34.2925H13.484C12.9121 34.2925 12.4219 33.883 12.3206 33.3203L7.23833 5.16118C6.9789 3.72551 5.84861 2.6621 4.4903 2.41821L10.6434 36.5098H33.6219C33.1405 35.216 31.8934 34.2925 30.4344 34.2925ZM32.6467 46.2312C31.364 44.055 30.7465 41.0928 30.5813 38.8741H10.8988C10.5367 41.6309 9.84686 44.1699 8.83446 46.4433C12.3622 47.2213 16.2625 47.6354 20.2952 47.6354C24.6528 47.6357 28.8889 47.1409 32.6467 46.2312Z" fill="#4493FB"/>
</svg>
