<svg width="50" height="32" viewBox="0 0 50 32" fill="none" xmlns="http://www.w3.org/2000/svg">
<path d="M49.1484 13.75C49.4922 14.4375 49.75 15.125 49.75 15.8125C49.75 16.5859 49.4922 17.2734 49.1484 17.875C46.6562 22.0859 43.3047 25.4375 39.0938 27.8438C34.7969 30.4219 30.0703 31.625 25 31.625C19.8438 31.625 15.2031 30.4219 10.9062 27.8438C6.60938 25.4375 3.25781 22.0859 0.851562 17.875C0.421875 17.2734 0.25 16.5859 0.25 15.8125C0.25 15.125 0.421875 14.4375 0.851562 13.75C3.25781 9.625 6.60938 6.27344 10.9062 3.78125C15.2031 1.28906 19.8438 0 25 0C30.0703 0 34.7969 1.28906 39.0938 3.78125C43.3047 6.27344 46.6562 9.625 49.1484 13.75ZM36 13.4062C36 11.5156 35.4844 9.71094 34.5391 8.07812C33.5078 6.44531 32.2188 5.15625 30.5 4.21094C28.7812 3.26562 26.9766 2.75 25 2.75C22.9375 2.75 21.1328 3.26562 19.4141 4.21094C17.6953 5.15625 16.4062 6.44531 15.4609 8.07812C14.4297 9.71094 14 11.5156 14 13.4062C14 15.3828 14.4297 17.1875 15.4609 18.8203C16.4062 20.4531 17.6953 21.7422 19.4141 22.6875C21.1328 23.6328 22.9375 24.0625 25 24.0625C26.9766 24.0625 28.7812 23.6328 30.5 22.6875C32.2188 21.7422 33.5078 20.4531 34.5391 18.8203C35.4844 17.1875 36 15.3828 36 13.4062ZM46.8281 16.5C47.0859 16.0703 47.0859 15.6406 46.8281 15.125C45.5391 12.9766 43.9922 11.0859 42.1016 9.36719C40.2109 7.64844 38.0625 6.27344 35.8281 5.15625C37.7188 7.5625 38.75 10.3125 38.75 13.4062C38.75 15.8125 38.0625 18.0469 36.8594 20.1094C35.6562 22.1719 33.9375 23.8047 31.875 25.0078C29.8125 26.2109 27.4922 26.8125 25 26.8125C22.4219 26.8125 20.1016 26.2109 18.0391 25.0078C15.9766 23.8047 14.2578 22.1719 13.0547 20.1094C11.8516 18.0469 11.25 15.8125 11.25 13.4062C11.25 10.3125 12.1953 7.5625 14.1719 5.15625C11.8516 6.27344 9.78906 7.64844 7.89844 9.36719C6.00781 11.0859 4.375 13.0625 3.17188 15.125C2.82812 15.6406 2.82812 16.0703 3.17188 16.5C5.40625 20.2812 8.41406 23.2891 12.3672 25.5234C16.2344 27.7578 20.4453 28.875 25 28.875C29.4688 28.875 33.6797 27.8438 37.6328 25.6094C41.5 23.375 44.5938 20.3672 46.8281 16.5ZM19.5 13.0625C19.5 14.6094 20.0156 15.9844 21.0469 17.0156C22.0781 18.0469 23.4531 18.5625 25 18.5625C26.5469 18.5625 27.8359 18.0469 28.8672 17.0156C29.8984 15.9844 30.5 14.6094 30.5 13.0625C30.5 11.5156 29.8984 10.2266 28.8672 9.19531C27.8359 8.16406 26.5469 7.5625 25 7.5625C24.0547 7.5625 23.1953 7.82031 22.4219 8.25C23.0234 8.25 23.5391 8.50781 23.9688 8.9375C24.3984 9.36719 24.6562 9.88281 24.6562 10.4844C24.6562 11.1719 24.3984 11.6875 23.9688 12.1172C23.5391 12.5469 23.0234 12.7188 22.4219 12.7188C21.7344 12.7188 21.2188 12.5469 20.7891 12.1172C20.3594 11.6875 20.1875 11.1719 20.1875 10.4844C19.6719 11.3438 19.5 12.2031 19.5 13.0625Z" fill="#4493FB"/>
</svg>
