<svg width="50" height="39" viewBox="0 0 50 39" fill="none" xmlns="http://www.w3.org/2000/svg">
<path d="M17.4375 22C17.2656 22 17.0938 22 16.9219 21.8281C16.75 21.6562 16.75 21.4844 16.75 21.3125V17.1875C16.75 17.0156 16.75 16.9297 16.9219 16.7578C17.0938 16.5859 17.2656 16.5 17.4375 16.5H22.25V11.6875C22.25 11.5156 22.25 11.4297 22.4219 11.2578C22.5938 11.0859 22.7656 11 22.9375 11H27.0625C27.2344 11 27.3203 11.0859 27.4922 11.2578C27.6641 11.4297 27.75 11.5156 27.75 11.6875V16.5H32.5625C32.7344 16.5 32.8203 16.5859 32.9922 16.7578C33.1641 16.9297 33.25 17.0156 33.25 17.1875V21.3125C33.25 21.4844 33.1641 21.6562 32.9922 21.8281C32.8203 22 32.7344 22 32.5625 22H27.75V26.8125C27.75 26.9844 27.6641 27.1562 27.4922 27.3281C27.3203 27.5 27.2344 27.5 27.0625 27.5H22.9375C22.7656 27.5 22.5938 27.5 22.4219 27.3281C22.25 27.1562 22.25 26.9844 22.25 26.8125V22H17.4375ZM45.625 0C46.7422 0 47.6875 0.429688 48.5469 1.20312C49.3203 2.0625 49.75 3.00781 49.75 4.125V34.375C49.75 35.5781 49.3203 36.5234 48.5469 37.2969C47.6875 38.1562 46.7422 38.5 45.625 38.5H4.375C3.17188 38.5 2.22656 38.1562 1.45312 37.2969C0.59375 36.5234 0.25 35.5781 0.25 34.375V4.125C0.25 3.00781 0.59375 2.0625 1.45312 1.20312C2.22656 0.429688 3.17188 0 4.375 0H45.625ZM8.5 35.75V2.75H4.375C3.94531 2.75 3.60156 2.92188 3.34375 3.17969C3.08594 3.4375 3 3.78125 3 4.125V34.375C3 34.8047 3.08594 35.1484 3.34375 35.4062C3.60156 35.6641 3.94531 35.75 4.375 35.75H8.5ZM38.75 35.75V2.75H11.25V35.75H38.75ZM47 34.375V4.125C47 3.78125 46.8281 3.4375 46.5703 3.17969C46.3125 2.92188 45.9688 2.75 45.625 2.75H41.5V35.75H45.625C45.9688 35.75 46.3125 35.6641 46.5703 35.4062C46.8281 35.1484 47 34.8047 47 34.375Z" fill="#4493FB"/>
</svg>
