<svg width="201" height="201" viewBox="0 0 201 201" fill="none" xmlns="http://www.w3.org/2000/svg">
<path d="M3.2428 194.514L3.8257 194.568C5.3332 194.843 6.4856 196.169 6.4856 197.757L6.432 198.34C6.1573 199.861 4.824 201 3.2428 201L2.6599 200.946C1.139 200.678 0 199.352 0 197.757C0 195.968 1.4539 194.514 3.2428 194.514ZM35.6641 194.514L36.247 194.568C37.7545 194.843 38.9069 196.169 38.9069 197.757L38.8533 198.34C38.5786 199.854 37.252 201 35.6641 201L35.0812 200.946C33.567 200.678 32.4213 199.352 32.4213 197.757C32.4213 195.968 33.8685 194.514 35.6641 194.514ZM68.0787 194.514L68.6616 194.568C70.1758 194.843 71.3215 196.169 71.3215 197.757L71.2679 198.34C70.9999 199.854 69.6733 201 68.0787 201L67.4958 200.946C65.9883 200.678 64.8359 199.352 64.8359 197.757C64.8359 195.968 66.2898 194.514 68.0787 194.514ZM100.507 194.514L101.083 194.568C102.597 194.843 103.743 196.169 103.743 197.757L103.689 198.34C103.414 199.854 102.088 201 100.5 201L99.9171 200.946C98.4029 200.678 97.2572 199.352 97.2572 197.757C97.2572 195.968 98.7111 194.514 100.5 194.514H100.507ZM132.921 194.514L133.504 194.568C135.012 194.843 136.164 196.169 136.164 197.757L136.11 198.34C135.836 199.854 134.509 201 132.921 201L132.338 200.946C130.824 200.678 129.678 199.352 129.678 197.757C129.678 195.968 131.126 194.514 132.921 194.514ZM165.336 194.514C167.125 194.514 168.579 195.968 168.579 197.764C168.579 199.546 167.125 201 165.336 201L164.753 200.946L164.21 200.799C162.977 200.337 162.1 199.151 162.1 197.764C162.1 195.968 163.547 194.514 165.336 194.514ZM197.764 194.514L198.34 194.568C199.854 194.843 201 196.169 201 197.757L200.946 198.34C200.678 199.854 199.352 201 197.757 201L197.174 200.946C195.667 200.678 194.514 199.352 194.514 197.757C194.514 195.968 195.975 194.514 197.764 194.514ZM165.336 162.1C167.125 162.1 168.579 163.547 168.579 165.343C168.579 167.131 167.125 168.585 165.336 168.585L164.753 168.525L164.21 168.378C162.977 167.922 162.1 166.736 162.1 165.343C162.1 163.547 163.547 162.1 165.336 162.1ZM197.764 162.1L198.34 162.153C199.854 162.421 201 163.748 201 165.343L200.946 165.925C200.678 167.433 199.352 168.579 197.757 168.579L197.174 168.525C195.667 168.257 194.514 166.93 194.514 165.343C194.514 163.547 195.975 162.1 197.764 162.1ZM68.0787 162.1C69.8676 162.1 71.3215 163.547 71.3215 165.343C71.3215 167.131 69.8676 168.585 68.0787 168.585L67.4958 168.525L66.9531 168.378C65.7203 167.922 64.8426 166.736 64.8426 165.343C64.8426 163.547 66.2898 162.1 68.0787 162.1ZM100.507 162.1L101.083 162.153C102.597 162.421 103.743 163.748 103.743 165.343L103.689 165.925C103.414 167.433 102.088 168.579 100.5 168.579L99.9171 168.525C98.4029 168.257 97.2572 166.93 97.2572 165.343C97.2572 163.547 98.7111 162.1 100.5 162.1H100.507ZM132.921 162.1L133.504 162.153C135.012 162.421 136.164 163.748 136.164 165.343L136.11 165.925C135.836 167.433 134.509 168.579 132.921 168.579L132.338 168.525C130.824 168.257 129.678 166.93 129.678 165.343C129.678 163.547 131.126 162.1 132.921 162.1ZM3.2428 162.1L3.8257 162.153C5.3332 162.421 6.4856 163.748 6.4856 165.343L6.432 165.925C6.1573 167.433 4.8307 168.579 3.2428 168.579L2.6599 168.525C1.139 168.257 0 166.93 0 165.343C0 163.547 1.4539 162.1 3.2428 162.1ZM35.6641 162.1L36.247 162.153C37.7545 162.421 38.9069 163.748 38.9069 165.343L38.8533 165.925C38.5786 167.433 37.252 168.579 35.6641 168.579L35.0812 168.525C33.567 168.257 32.4213 166.93 32.4213 165.343C32.4213 163.547 33.8685 162.1 35.6641 162.1ZM3.2361 129.678L3.8257 129.732C5.3332 130.007 6.4856 131.327 6.4856 132.921L6.432 133.504C6.1573 135.018 4.8307 136.164 3.2428 136.164L2.6599 136.111C1.139 135.842 0 134.516 0 132.928C0 131.139 1.4539 129.685 3.2428 129.685L3.2361 129.678ZM35.6641 129.678L36.247 129.732C37.7545 130.007 38.9069 131.327 38.9069 132.921L38.8533 133.504C38.5786 135.018 37.252 136.164 35.6641 136.164L35.0812 136.111C33.567 135.842 32.4213 134.516 32.4213 132.921C32.4213 131.132 33.8685 129.678 35.6641 129.678ZM68.0787 129.678C69.8676 129.678 71.3215 131.132 71.3215 132.921C71.3215 133.518 71.1607 134.074 70.8793 134.556L70.5577 135.012C69.9681 135.715 69.077 136.164 68.0787 136.164L67.4958 136.111C65.9883 135.842 64.8359 134.516 64.8359 132.921C64.8359 131.528 65.7136 130.342 66.9464 129.88L67.4958 129.732L68.0787 129.678ZM100.507 129.678L101.083 129.732C102.597 130.007 103.743 131.327 103.743 132.921L103.689 133.504C103.414 135.018 102.088 136.164 100.5 136.164L99.9171 136.111C98.4029 135.842 97.2572 134.516 97.2572 132.921C97.2572 131.132 98.7111 129.678 100.5 129.678H100.507ZM132.921 129.678L133.504 129.732C135.012 130.007 136.164 131.327 136.164 132.921L136.11 133.504C135.836 135.018 134.509 136.164 132.921 136.164L132.338 136.111C130.824 135.842 129.678 134.516 129.678 132.921C129.678 131.132 131.126 129.678 132.921 129.678ZM165.336 129.678L165.919 129.732C167.433 130.007 168.579 131.327 168.579 132.921L168.525 133.504C168.257 135.018 166.93 136.164 165.336 136.164L164.753 136.111C163.245 135.842 162.1 134.516 162.1 132.921C162.1 131.132 163.547 129.678 165.336 129.678ZM197.764 129.678L198.34 129.732C199.854 130.007 201 131.327 201 132.921L200.946 133.504C200.678 135.018 199.352 136.164 197.757 136.164L197.174 136.111C195.667 135.842 194.514 134.516 194.514 132.921C194.514 131.132 195.975 129.678 197.764 129.678ZM100.5 97.2572L101.083 97.3108C102.597 97.5855 103.743 98.9121 103.743 100.5L103.689 101.083C103.414 102.597 102.088 103.743 100.5 103.743L99.9171 103.689C98.4029 103.421 97.2572 102.088 97.2572 100.5C97.2572 98.7111 98.7111 97.2572 100.5 97.2572ZM132.921 97.2572L133.504 97.3108C135.012 97.5855 136.164 98.9121 136.164 100.5L136.11 101.083C135.836 102.597 134.509 103.743 132.921 103.743L132.338 103.689C130.824 103.421 129.678 102.088 129.678 100.5C129.678 98.7111 131.126 97.2572 132.921 97.2572ZM197.757 97.2572L198.34 97.3108C199.854 97.5855 201 98.9121 201 100.5L200.946 101.083C200.678 102.597 199.352 103.743 197.757 103.743L197.174 103.689C195.667 103.421 194.514 102.088 194.514 100.5C194.514 98.7111 195.968 97.2572 197.757 97.2572ZM3.2428 97.2572L3.8257 97.3108C5.3332 97.5855 6.4856 98.9121 6.4856 100.5L6.432 101.083C6.1573 102.597 4.8307 103.743 3.2428 103.743L2.6599 103.689C1.139 103.421 0 102.088 0 100.5C0 98.7111 1.4539 97.2572 3.2428 97.2572ZM165.336 97.2572L165.919 97.3108C167.433 97.5855 168.579 98.9121 168.579 100.5L168.525 101.083C168.257 102.597 166.93 103.743 165.336 103.743L164.753 103.689C163.245 103.421 162.1 102.088 162.1 100.5C162.1 98.7111 163.547 97.2572 165.336 97.2572ZM68.0787 97.2572L68.6616 97.3108L69.211 97.4649C70.4438 97.9205 71.3215 99.1064 71.3215 100.5C71.3215 101.498 70.8726 102.383 70.1691 102.979L69.7135 103.301C69.2378 103.582 68.675 103.743 68.0787 103.743L67.4958 103.689C65.9883 103.421 64.8359 102.088 64.8359 100.5C64.8359 98.7111 66.2898 97.2572 68.0787 97.2572ZM35.6641 97.2572L36.247 97.3108C37.7545 97.5855 38.9069 98.9121 38.9069 100.5L38.8533 101.083C38.5786 102.597 37.252 103.743 35.6641 103.743L35.0812 103.689C33.567 103.421 32.4213 102.088 32.4213 100.5C32.4213 98.7111 33.8685 97.2572 35.6641 97.2572ZM35.6641 64.8359L36.247 64.8895C37.7545 65.1642 38.9069 66.4908 38.9069 68.0787L38.8533 68.6616C38.5786 70.1758 37.252 71.3215 35.6641 71.3215L35.0812 71.2679C33.567 70.9999 32.4213 69.6733 32.4213 68.0787C32.4213 66.2898 33.8685 64.8359 35.6641 64.8359ZM3.2361 64.8359L3.8257 64.8895C5.3332 65.1642 6.4856 66.4908 6.4856 68.0787L6.432 68.6616C6.1573 70.1758 4.8307 71.3215 3.2428 71.3215L2.6599 71.2679C1.139 70.9999 0 69.68 0 68.0787C0 66.2898 1.4539 64.8359 3.2428 64.8359H3.2361ZM197.757 64.8359L198.34 64.8895C199.854 65.1642 201 66.4908 201 68.0787L200.946 68.6616C200.678 70.1758 199.352 71.3215 197.757 71.3215L197.174 71.2679C195.667 70.9999 194.514 69.6733 194.514 68.0787C194.514 66.2898 195.968 64.8359 197.757 64.8359ZM68.0787 64.8359L68.6616 64.8895C70.1758 65.1642 71.3215 66.4908 71.3215 68.0787L71.2679 68.6616C70.9999 70.1758 69.6733 71.3215 68.0787 71.3215L67.4958 71.2679C65.9883 70.9999 64.8359 69.6733 64.8359 68.0787C64.8359 66.2898 66.2898 64.8359 68.0787 64.8359ZM132.921 64.8359L133.504 64.8895C135.012 65.1642 136.164 66.4908 136.164 68.0787L136.11 68.6616C135.836 70.1758 134.509 71.3215 132.921 71.3215L132.338 71.2679C130.824 70.9999 129.678 69.6733 129.678 68.0787C129.678 66.2898 131.126 64.8359 132.921 64.8359ZM100.5 64.8359L101.083 64.8895C102.597 65.1642 103.743 66.4908 103.743 68.0787L103.689 68.6616C103.414 70.1758 102.088 71.3215 100.5 71.3215L99.9171 71.2679C98.4029 70.9999 97.2572 69.6733 97.2572 68.0787C97.2572 66.2898 98.7111 64.8359 100.5 64.8359ZM165.336 64.8359L165.919 64.8895C167.433 65.1642 168.579 66.4908 168.579 68.0787L168.525 68.6616C168.257 70.1758 166.93 71.3215 165.336 71.3215L164.753 71.2679C163.245 70.9999 162.1 69.6733 162.1 68.0787C162.1 66.2898 163.547 64.8359 165.336 64.8359ZM3.2428 32.428L3.8257 32.4816C5.3332 32.7496 6.4856 34.0762 6.4856 35.6708L6.432 36.247C6.1573 37.7612 4.8307 38.9069 3.2428 38.9069L2.6599 38.8533C1.139 38.592 0 37.252 0 35.6641C0 33.8685 1.4539 32.428 3.2428 32.428ZM35.6641 32.428L36.247 32.4816C37.7545 32.7496 38.9069 34.0762 38.9069 35.6708L38.8533 36.2537C38.5786 37.7679 37.252 38.9136 35.6641 38.9136L35.0812 38.86C33.567 38.592 32.4213 37.2587 32.4213 35.6708C32.4213 33.8752 33.8685 32.428 35.6641 32.428ZM68.0787 32.428L68.6616 32.4816C70.1758 32.7496 71.3215 34.0762 71.3215 35.6708L71.2679 36.2537C70.9999 37.7679 69.6733 38.9136 68.0787 38.9136L67.4958 38.86C65.9883 38.592 64.8359 37.2587 64.8359 35.6708C64.8359 33.8752 66.2898 32.428 68.0787 32.428ZM100.507 32.428L101.083 32.4816C102.597 32.7496 103.743 34.0762 103.743 35.6708L103.689 36.2537C103.414 37.7679 102.088 38.9136 100.5 38.9136L99.9171 38.86C98.4029 38.592 97.2572 37.2587 97.2572 35.6708C97.2572 33.8752 98.7111 32.428 100.5 32.428H100.507ZM132.921 32.428L133.504 32.4816C135.012 32.7496 136.164 34.0762 136.164 35.6708L136.11 36.2537C135.836 37.7679 134.509 38.9136 132.921 38.9136L132.338 38.86C130.824 38.592 129.678 37.2587 129.678 35.6708C129.678 33.8752 131.126 32.428 132.921 32.428ZM165.336 32.428L165.919 32.4816C167.433 32.7496 168.579 34.0762 168.579 35.6708L168.525 36.2537C168.257 37.7679 166.93 38.9136 165.336 38.9136L164.753 38.86C163.245 38.592 162.1 37.2587 162.1 35.6708C162.1 33.8752 163.547 32.428 165.336 32.428ZM197.764 32.428L198.34 32.4816C199.854 32.7496 201 34.0762 201 35.6708L200.946 36.2537C200.678 37.7679 199.352 38.9136 197.757 38.9136L197.174 38.86C195.667 38.592 194.514 37.2587 194.514 35.6708C194.514 33.8752 195.975 32.428 197.764 32.428ZM3.2361 0L3.819 0.0536C5.3265 0.3216 6.4789 1.6482 6.4789 3.2428L6.432 3.819C6.1573 5.3332 4.824 6.4856 3.2428 6.4856L2.6599 6.432C1.139 6.164 0 4.8307 0 3.2428C0 1.4539 1.4539 0 3.2428 0H3.2361ZM35.6574 0L36.2403 0.0536C37.7478 0.3216 38.9002 1.6482 38.9002 3.2428L38.8533 3.819C38.5786 5.3265 37.252 6.4789 35.6641 6.4789L35.0812 6.432C33.567 6.164 32.4213 4.8307 32.4213 3.2428C32.4213 1.4539 33.8685 0 35.6641 0H35.6574ZM68.072 0L68.6549 0.0536C70.1691 0.3216 71.3148 1.6482 71.3148 3.2428L71.2612 3.8257C70.9932 5.3332 69.6666 6.4856 68.072 6.4856L67.4958 6.432C65.995 6.164 64.8359 4.8307 64.8359 3.2428C64.8359 1.4539 66.2898 0 68.0787 0H68.072ZM100.5 0L101.076 0.0536C102.59 0.3216 103.736 1.6482 103.736 3.2428L103.683 3.8257C103.408 5.3332 102.081 6.4856 100.493 6.4856L99.9171 6.432C98.4029 6.1573 97.2572 4.8307 97.2572 3.2428C97.2572 1.4539 98.7111 0 100.5 0ZM132.915 0L133.497 0.0536C135.005 0.3216 136.157 1.6482 136.157 3.2428L136.104 3.8257C135.829 5.3332 134.503 6.4856 132.915 6.4856L132.338 6.432C130.824 6.1573 129.678 4.8307 129.678 3.2428C129.678 1.4539 131.126 0 132.921 0H132.915ZM165.329 0L165.912 0.0536C167.426 0.3216 168.572 1.6482 168.572 3.2428L168.518 3.8257C168.25 5.3332 166.924 6.4856 165.329 6.4856L164.753 6.432C163.245 6.1573 162.1 4.8307 162.1 3.2428C162.1 1.4539 163.547 0 165.336 0H165.329ZM197.757 0L198.333 0.0536C199.848 0.3216 200.993 1.6482 200.993 3.2428L200.94 3.8257C200.672 5.3332 199.345 6.4856 197.75 6.4856L197.181 6.432C195.673 6.1573 194.521 4.8307 194.521 3.2428C194.521 1.4539 195.968 0 197.757 0Z" fill="#D2D6DF"/>
</svg>
