<svg width="41" height="40" viewBox="0 0 41 40" fill="none" xmlns="http://www.w3.org/2000/svg">
<path d="M1.14558 38.7093L1.26158 38.72C1.56158 38.7747 1.79091 39.0387 1.79091 39.3547L1.78024 39.4707C1.72558 39.7733 1.46024 40 1.14558 40L1.02958 39.9893C0.72691 39.936 0.500244 39.672 0.500244 39.3547C0.500244 38.9987 0.789577 38.7093 1.14558 38.7093ZM7.59756 38.7093L7.71356 38.72C8.01356 38.7747 8.2429 39.0387 8.2429 39.3547L8.23223 39.4707C8.17756 39.772 7.91356 40 7.59756 40L7.48156 39.9893C7.18023 39.936 6.95223 39.672 6.95223 39.3547C6.95223 38.9987 7.24023 38.7093 7.59756 38.7093ZM14.0482 38.7093L14.1642 38.72C14.4656 38.7747 14.6936 39.0387 14.6936 39.3547L14.6829 39.4707C14.6296 39.772 14.3656 40 14.0482 40L13.9322 39.9893C13.6322 39.936 13.4029 39.672 13.4029 39.3547C13.4029 38.9987 13.6922 38.7093 14.0482 38.7093ZM20.5015 38.7093L20.6162 38.72C20.9175 38.7747 21.1455 39.0387 21.1455 39.3547L21.1349 39.4707C21.0802 39.772 20.8162 40 20.5002 40L20.3842 39.9893C20.0829 39.936 19.8549 39.672 19.8549 39.3547C19.8549 38.9987 20.1442 38.7093 20.5002 38.7093H20.5015ZM26.9522 38.7093L27.0682 38.72C27.3682 38.7747 27.5975 39.0387 27.5975 39.3547L27.5869 39.4707C27.5322 39.772 27.2682 40 26.9522 40L26.8362 39.9893C26.5349 39.936 26.3069 39.672 26.3069 39.3547C26.3069 38.9987 26.5949 38.7093 26.9522 38.7093ZM33.4029 38.7093C33.7589 38.7093 34.0482 38.9987 34.0482 39.356C34.0482 39.7107 33.7589 40 33.4029 40L33.2868 39.9893L33.1788 39.96C32.9335 39.868 32.7589 39.632 32.7589 39.356C32.7589 38.9987 33.0469 38.7093 33.4029 38.7093ZM39.8562 38.7093L39.9708 38.72C40.2722 38.7747 40.5002 39.0387 40.5002 39.3547L40.4895 39.4707C40.4362 39.772 40.1722 40 39.8548 40L39.7388 39.9893C39.4388 39.936 39.2095 39.672 39.2095 39.3547C39.2095 38.9987 39.5002 38.7093 39.8562 38.7093ZM33.4029 32.2587C33.7589 32.2587 34.0482 32.5467 34.0482 32.904C34.0482 33.26 33.7589 33.5493 33.4029 33.5493L33.2868 33.5373L33.1788 33.508C32.9335 33.4173 32.7589 33.1813 32.7589 32.904C32.7589 32.5467 33.0469 32.2587 33.4029 32.2587ZM39.8562 32.2587L39.9708 32.2693C40.2722 32.3227 40.5002 32.5867 40.5002 32.904L40.4895 33.02C40.4362 33.32 40.1722 33.548 39.8548 33.548L39.7388 33.5373C39.4388 33.484 39.2095 33.22 39.2095 32.904C39.2095 32.5467 39.5002 32.2587 39.8562 32.2587ZM14.0482 32.2587C14.4042 32.2587 14.6936 32.5467 14.6936 32.904C14.6936 33.26 14.4042 33.5493 14.0482 33.5493L13.9322 33.5373L13.8242 33.508C13.5789 33.4173 13.4042 33.1813 13.4042 32.904C13.4042 32.5467 13.6922 32.2587 14.0482 32.2587ZM20.5015 32.2587L20.6162 32.2693C20.9175 32.3227 21.1455 32.5867 21.1455 32.904L21.1349 33.02C21.0802 33.32 20.8162 33.548 20.5002 33.548L20.3842 33.5373C20.0829 33.484 19.8549 33.22 19.8549 32.904C19.8549 32.5467 20.1442 32.2587 20.5002 32.2587H20.5015ZM26.9522 32.2587L27.0682 32.2693C27.3682 32.3227 27.5975 32.5867 27.5975 32.904L27.5869 33.02C27.5322 33.32 27.2682 33.548 26.9522 33.548L26.8362 33.5373C26.5349 33.484 26.3069 33.22 26.3069 32.904C26.3069 32.5467 26.5949 32.2587 26.9522 32.2587ZM1.14558 32.2587L1.26158 32.2693C1.56158 32.3227 1.79091 32.5867 1.79091 32.904L1.78024 33.02C1.72558 33.32 1.46158 33.548 1.14558 33.548L1.02958 33.5373C0.72691 33.484 0.500244 33.22 0.500244 32.904C0.500244 32.5467 0.789577 32.2587 1.14558 32.2587ZM7.59756 32.2587L7.71356 32.2693C8.01356 32.3227 8.2429 32.5867 8.2429 32.904L8.23223 33.02C8.17756 33.32 7.91356 33.548 7.59756 33.548L7.48156 33.5373C7.18023 33.484 6.95223 33.22 6.95223 32.904C6.95223 32.5467 7.24023 32.2587 7.59756 32.2587ZM1.14424 25.8067L1.26158 25.8173C1.56158 25.872 1.79091 26.1347 1.79091 26.452L1.78024 26.568C1.72558 26.8693 1.46158 27.0973 1.14558 27.0973L1.02958 27.0867C0.72691 27.0333 0.500244 26.7693 0.500244 26.4533C0.500244 26.0973 0.789577 25.808 1.14558 25.808L1.14424 25.8067ZM7.59756 25.8067L7.71356 25.8173C8.01356 25.872 8.2429 26.1347 8.2429 26.452L8.23223 26.568C8.17756 26.8693 7.91356 27.0973 7.59756 27.0973L7.48156 27.0867C7.18023 27.0333 6.95223 26.7693 6.95223 26.452C6.95223 26.096 7.24023 25.8067 7.59756 25.8067ZM14.0482 25.8067C14.4042 25.8067 14.6936 26.096 14.6936 26.452C14.6936 26.5707 14.6616 26.6813 14.6056 26.7773L14.5416 26.868C14.4242 27.008 14.2469 27.0973 14.0482 27.0973L13.9322 27.0867C13.6322 27.0333 13.4029 26.7693 13.4029 26.452C13.4029 26.1747 13.5776 25.9387 13.8229 25.8467L13.9322 25.8173L14.0482 25.8067ZM20.5015 25.8067L20.6162 25.8173C20.9175 25.872 21.1455 26.1347 21.1455 26.452L21.1349 26.568C21.0802 26.8693 20.8162 27.0973 20.5002 27.0973L20.3842 27.0867C20.0829 27.0333 19.8549 26.7693 19.8549 26.452C19.8549 26.096 20.1442 25.8067 20.5002 25.8067H20.5015ZM26.9522 25.8067L27.0682 25.8173C27.3682 25.872 27.5975 26.1347 27.5975 26.452L27.5869 26.568C27.5322 26.8693 27.2682 27.0973 26.9522 27.0973L26.8362 27.0867C26.5349 27.0333 26.3069 26.7693 26.3069 26.452C26.3069 26.096 26.5949 25.8067 26.9522 25.8067ZM33.4029 25.8067L33.5188 25.8173C33.8202 25.872 34.0482 26.1347 34.0482 26.452L34.0375 26.568C33.9842 26.8693 33.7202 27.0973 33.4029 27.0973L33.2868 27.0867C32.9869 27.0333 32.7589 26.7693 32.7589 26.452C32.7589 26.096 33.0469 25.8067 33.4029 25.8067ZM39.8562 25.8067L39.9708 25.8173C40.2722 25.872 40.5002 26.1347 40.5002 26.452L40.4895 26.568C40.4362 26.8693 40.1722 27.0973 39.8548 27.0973L39.7388 27.0867C39.4388 27.0333 39.2095 26.7693 39.2095 26.452C39.2095 26.096 39.5002 25.8067 39.8562 25.8067ZM20.5002 19.3547L20.6162 19.3653C20.9175 19.42 21.1455 19.684 21.1455 20L21.1349 20.116C21.0802 20.4173 20.8162 20.6453 20.5002 20.6453L20.3842 20.6347C20.0829 20.5813 19.8549 20.316 19.8549 20C19.8549 19.644 20.1442 19.3547 20.5002 19.3547ZM26.9522 19.3547L27.0682 19.3653C27.3682 19.42 27.5975 19.684 27.5975 20L27.5869 20.116C27.5322 20.4173 27.2682 20.6453 26.9522 20.6453L26.8362 20.6347C26.5349 20.5813 26.3069 20.316 26.3069 20C26.3069 19.644 26.5949 19.3547 26.9522 19.3547ZM39.8548 19.3547L39.9708 19.3653C40.2722 19.42 40.5002 19.684 40.5002 20L40.4895 20.116C40.4362 20.4173 40.1722 20.6453 39.8548 20.6453L39.7388 20.6347C39.4388 20.5813 39.2095 20.316 39.2095 20C39.2095 19.644 39.4988 19.3547 39.8548 19.3547ZM1.14558 19.3547L1.26158 19.3653C1.56158 19.42 1.79091 19.684 1.79091 20L1.78024 20.116C1.72558 20.4173 1.46158 20.6453 1.14558 20.6453L1.02958 20.6347C0.72691 20.5813 0.500244 20.316 0.500244 20C0.500244 19.644 0.789577 19.3547 1.14558 19.3547ZM33.4029 19.3547L33.5188 19.3653C33.8202 19.42 34.0482 19.684 34.0482 20L34.0375 20.116C33.9842 20.4173 33.7202 20.6453 33.4029 20.6453L33.2868 20.6347C32.9869 20.5813 32.7589 20.316 32.7589 20C32.7589 19.644 33.0469 19.3547 33.4029 19.3547ZM14.0482 19.3547L14.1642 19.3653L14.2736 19.396C14.5189 19.4867 14.6936 19.7227 14.6936 20C14.6936 20.1987 14.6042 20.3747 14.4642 20.4933L14.3736 20.5573C14.2789 20.6133 14.1669 20.6453 14.0482 20.6453L13.9322 20.6347C13.6322 20.5813 13.4029 20.316 13.4029 20C13.4029 19.644 13.6922 19.3547 14.0482 19.3547ZM7.59756 19.3547L7.71356 19.3653C8.01356 19.42 8.2429 19.684 8.2429 20L8.23223 20.116C8.17756 20.4173 7.91356 20.6453 7.59756 20.6453L7.48156 20.6347C7.18023 20.5813 6.95223 20.316 6.95223 20C6.95223 19.644 7.24023 19.3547 7.59756 19.3547ZM7.59756 12.9027L7.71356 12.9133C8.01356 12.968 8.2429 13.232 8.2429 13.548L8.23223 13.664C8.17756 13.9653 7.91356 14.1933 7.59756 14.1933L7.48156 14.1827C7.18023 14.1293 6.95223 13.8653 6.95223 13.548C6.95223 13.192 7.24023 12.9027 7.59756 12.9027ZM1.14424 12.9027L1.26158 12.9133C1.56158 12.968 1.79091 13.232 1.79091 13.548L1.78024 13.664C1.72558 13.9653 1.46158 14.1933 1.14558 14.1933L1.02958 14.1827C0.72691 14.1293 0.500244 13.8667 0.500244 13.548C0.500244 13.192 0.789577 12.9027 1.14558 12.9027H1.14424ZM39.8548 12.9027L39.9708 12.9133C40.2722 12.968 40.5002 13.232 40.5002 13.548L40.4895 13.664C40.4362 13.9653 40.1722 14.1933 39.8548 14.1933L39.7388 14.1827C39.4388 14.1293 39.2095 13.8653 39.2095 13.548C39.2095 13.192 39.4988 12.9027 39.8548 12.9027ZM14.0482 12.9027L14.1642 12.9133C14.4656 12.968 14.6936 13.232 14.6936 13.548L14.6829 13.664C14.6296 13.9653 14.3656 14.1933 14.0482 14.1933L13.9322 14.1827C13.6322 14.1293 13.4029 13.8653 13.4029 13.548C13.4029 13.192 13.6922 12.9027 14.0482 12.9027ZM26.9522 12.9027L27.0682 12.9133C27.3682 12.968 27.5975 13.232 27.5975 13.548L27.5869 13.664C27.5322 13.9653 27.2682 14.1933 26.9522 14.1933L26.8362 14.1827C26.5349 14.1293 26.3069 13.8653 26.3069 13.548C26.3069 13.192 26.5949 12.9027 26.9522 12.9027ZM20.5002 12.9027L20.6162 12.9133C20.9175 12.968 21.1455 13.232 21.1455 13.548L21.1349 13.664C21.0802 13.9653 20.8162 14.1933 20.5002 14.1933L20.3842 14.1827C20.0829 14.1293 19.8549 13.8653 19.8549 13.548C19.8549 13.192 20.1442 12.9027 20.5002 12.9027ZM33.4029 12.9027L33.5188 12.9133C33.8202 12.968 34.0482 13.232 34.0482 13.548L34.0375 13.664C33.9842 13.9653 33.7202 14.1933 33.4029 14.1933L33.2868 14.1827C32.9869 14.1293 32.7589 13.8653 32.7589 13.548C32.7589 13.192 33.0469 12.9027 33.4029 12.9027ZM1.14558 6.45333L1.26158 6.464C1.56158 6.51733 1.79091 6.78133 1.79091 7.09867L1.78024 7.21333C1.72558 7.51467 1.46158 7.74267 1.14558 7.74267L1.02958 7.732C0.72691 7.68 0.500244 7.41333 0.500244 7.09733C0.500244 6.74 0.789577 6.45333 1.14558 6.45333ZM7.59756 6.45333L7.71356 6.464C8.01356 6.51733 8.2429 6.78133 8.2429 7.09867L8.23223 7.21467C8.17756 7.516 7.91356 7.744 7.59756 7.744L7.48156 7.73333C7.18023 7.68 6.95223 7.41467 6.95223 7.09867C6.95223 6.74133 7.24023 6.45333 7.59756 6.45333ZM14.0482 6.45333L14.1642 6.464C14.4656 6.51733 14.6936 6.78133 14.6936 7.09867L14.6829 7.21467C14.6296 7.516 14.3656 7.744 14.0482 7.744L13.9322 7.73333C13.6322 7.68 13.4029 7.41467 13.4029 7.09867C13.4029 6.74133 13.6922 6.45333 14.0482 6.45333ZM20.5015 6.45333L20.6162 6.464C20.9175 6.51733 21.1455 6.78133 21.1455 7.09867L21.1349 7.21467C21.0802 7.516 20.8162 7.744 20.5002 7.744L20.3842 7.73333C20.0829 7.68 19.8549 7.41467 19.8549 7.09867C19.8549 6.74133 20.1442 6.45333 20.5002 6.45333H20.5015ZM26.9522 6.45333L27.0682 6.464C27.3682 6.51733 27.5975 6.78133 27.5975 7.09867L27.5869 7.21467C27.5322 7.516 27.2682 7.744 26.9522 7.744L26.8362 7.73333C26.5349 7.68 26.3069 7.41467 26.3069 7.09867C26.3069 6.74133 26.5949 6.45333 26.9522 6.45333ZM33.4029 6.45333L33.5188 6.464C33.8202 6.51733 34.0482 6.78133 34.0482 7.09867L34.0375 7.21467C33.9842 7.516 33.7202 7.744 33.4029 7.744L33.2868 7.73333C32.9869 7.68 32.7589 7.41467 32.7589 7.09867C32.7589 6.74133 33.0469 6.45333 33.4029 6.45333ZM39.8562 6.45333L39.9708 6.464C40.2722 6.51733 40.5002 6.78133 40.5002 7.09867L40.4895 7.21467C40.4362 7.516 40.1722 7.744 39.8548 7.744L39.7388 7.73333C39.4388 7.68 39.2095 7.41467 39.2095 7.09867C39.2095 6.74133 39.5002 6.45333 39.8562 6.45333ZM1.14424 0L1.26024 0.0106667C1.56024 0.064 1.78957 0.328 1.78957 0.645333L1.78024 0.76C1.72558 1.06133 1.46024 1.29067 1.14558 1.29067L1.02958 1.28C0.72691 1.22667 0.500244 0.961333 0.500244 0.645333C0.500244 0.289333 0.789577 0 1.14558 0H1.14424ZM7.59623 0L7.71223 0.0106667C8.01223 0.064 8.24156 0.328 8.24156 0.645333L8.23223 0.76C8.17756 1.06 7.91356 1.28933 7.59756 1.28933L7.48156 1.28C7.18023 1.22667 6.95223 0.961333 6.95223 0.645333C6.95223 0.289333 7.24023 0 7.59756 0H7.59623ZM14.0469 0L14.1629 0.0106667C14.4642 0.064 14.6922 0.328 14.6922 0.645333L14.6816 0.761333C14.6282 1.06133 14.3642 1.29067 14.0469 1.29067L13.9322 1.28C13.6336 1.22667 13.4029 0.961333 13.4029 0.645333C13.4029 0.289333 13.6922 0 14.0482 0H14.0469ZM20.5002 0L20.6149 0.0106667C20.9162 0.064 21.1442 0.328 21.1442 0.645333L21.1335 0.761333C21.0789 1.06133 20.8149 1.29067 20.4989 1.29067L20.3842 1.28C20.0829 1.22533 19.8549 0.961333 19.8549 0.645333C19.8549 0.289333 20.1442 0 20.5002 0ZM26.9509 0L27.0669 0.0106667C27.3669 0.064 27.5962 0.328 27.5962 0.645333L27.5855 0.761333C27.5309 1.06133 27.2669 1.29067 26.9509 1.29067L26.8362 1.28C26.5349 1.22533 26.3069 0.961333 26.3069 0.645333C26.3069 0.289333 26.5949 0 26.9522 0H26.9509ZM33.4015 0L33.5175 0.0106667C33.8188 0.064 34.0468 0.328 34.0468 0.645333L34.0362 0.761333C33.9828 1.06133 33.7188 1.29067 33.4015 1.29067L33.2868 1.28C32.9869 1.22533 32.7589 0.961333 32.7589 0.645333C32.7589 0.289333 33.0469 0 33.4029 0H33.4015ZM39.8548 0L39.9695 0.0106667C40.2708 0.064 40.4988 0.328 40.4988 0.645333L40.4882 0.761333C40.4348 1.06133 40.1708 1.29067 39.8535 1.29067L39.7402 1.28C39.4402 1.22533 39.2108 0.961333 39.2108 0.645333C39.2108 0.289333 39.4988 0 39.8548 0Z" fill="#333333"/>
</svg>
