<svg width="153" height="24" viewBox="0 0 153 24" fill="none"
  xmlns="http://www.w3.org/2000/svg">
  <path d="M0.387199 23.2256L0.456799 23.232C0.636799 23.2648 0.774399 23.4232 0.774399 23.6128L0.767999 23.6824C0.735199 23.864 0.575999 24 0.387199 24L0.317599 23.9936C0.136 23.9616 0 23.8032 0 23.6128C0 23.3992 0.1736 23.2256 0.387199 23.2256ZM4.25839 23.2256L4.32799 23.232C4.50799 23.2648 4.64559 23.4232 4.64559 23.6128L4.63919 23.6824C4.60639 23.8632 4.44799 24 4.25839 24L4.18879 23.9936C4.00799 23.9616 3.87119 23.8032 3.87119 23.6128C3.87119 23.3992 4.04399 23.2256 4.25839 23.2256ZM8.12879 23.2256L8.19838 23.232C8.37918 23.2648 8.51598 23.4232 8.51598 23.6128L8.50958 23.6824C8.47758 23.8632 8.31918 24 8.12879 24L8.05919 23.9936C7.87918 23.9616 7.74158 23.8032 7.74158 23.6128C7.74158 23.3992 7.91519 23.2256 8.12879 23.2256ZM12.0008 23.2256L12.0696 23.232C12.2504 23.2648 12.3872 23.4232 12.3872 23.6128L12.3808 23.6824C12.348 23.8632 12.1896 24 12 24L11.9304 23.9936C11.7496 23.9616 11.6128 23.8032 11.6128 23.6128C11.6128 23.3992 11.7864 23.2256 12 23.2256H12.0008ZM15.8712 23.2256L15.9408 23.232C16.1208 23.2648 16.2584 23.4232 16.2584 23.6128L16.252 23.6824C16.2192 23.8632 16.0608 24 15.8712 24L15.8016 23.9936C15.6208 23.9616 15.484 23.8032 15.484 23.6128C15.484 23.3992 15.6568 23.2256 15.8712 23.2256ZM19.7416 23.2256C19.9552 23.2256 20.1288 23.3992 20.1288 23.6136C20.1288 23.8264 19.9552 24 19.7416 24L19.672 23.9936L19.6072 23.976C19.46 23.9208 19.3552 23.7792 19.3552 23.6136C19.3552 23.3992 19.528 23.2256 19.7416 23.2256ZM23.6136 23.2256L23.6824 23.232C23.8632 23.2648 24 23.4232 24 23.6128L23.9936 23.6824C23.9616 23.8632 23.8032 24 23.6128 24L23.5432 23.9936C23.3632 23.9616 23.2256 23.8032 23.2256 23.6128C23.2256 23.3992 23.4 23.2256 23.6136 23.2256ZM19.7416 19.3552C19.9552 19.3552 20.1288 19.528 20.1288 19.7424C20.1288 19.956 19.9552 20.1296 19.7416 20.1296L19.672 20.1224L19.6072 20.1048C19.46 20.0504 19.3552 19.9088 19.3552 19.7424C19.3552 19.528 19.528 19.3552 19.7416 19.3552ZM23.6136 19.3552L23.6824 19.3616C23.8632 19.3936 24 19.552 24 19.7424L23.9936 19.812C23.9616 19.992 23.8032 20.1288 23.6128 20.1288L23.5432 20.1224C23.3632 20.0904 23.2256 19.932 23.2256 19.7424C23.2256 19.528 23.4 19.3552 23.6136 19.3552ZM8.12879 19.3552C8.34238 19.3552 8.51598 19.528 8.51598 19.7424C8.51598 19.956 8.34238 20.1296 8.12879 20.1296L8.05919 20.1224L7.99438 20.1048C7.84718 20.0504 7.74239 19.9088 7.74239 19.7424C7.74239 19.528 7.91519 19.3552 8.12879 19.3552ZM12.0008 19.3552L12.0696 19.3616C12.2504 19.3936 12.3872 19.552 12.3872 19.7424L12.3808 19.812C12.348 19.992 12.1896 20.1288 12 20.1288L11.9304 20.1224C11.7496 20.0904 11.6128 19.932 11.6128 19.7424C11.6128 19.528 11.7864 19.3552 12 19.3552H12.0008ZM15.8712 19.3552L15.9408 19.3616C16.1208 19.3936 16.2584 19.552 16.2584 19.7424L16.252 19.812C16.2192 19.992 16.0608 20.1288 15.8712 20.1288L15.8016 20.1224C15.6208 20.0904 15.484 19.932 15.484 19.7424C15.484 19.528 15.6568 19.3552 15.8712 19.3552ZM0.387199 19.3552L0.456799 19.3616C0.636799 19.3936 0.774399 19.552 0.774399 19.7424L0.767999 19.812C0.735199 19.992 0.576799 20.1288 0.387199 20.1288L0.317599 20.1224C0.136 20.0904 0 19.932 0 19.7424C0 19.528 0.1736 19.3552 0.387199 19.3552ZM4.25839 19.3552L4.32799 19.3616C4.50799 19.3936 4.64559 19.552 4.64559 19.7424L4.63919 19.812C4.60639 19.992 4.44799 20.1288 4.25839 20.1288L4.18879 20.1224C4.00799 20.0904 3.87119 19.932 3.87119 19.7424C3.87119 19.528 4.04399 19.3552 4.25839 19.3552ZM0.386399 15.484L0.456799 15.4904C0.636799 15.5232 0.774399 15.6808 0.774399 15.8712L0.767999 15.9408C0.735199 16.1216 0.576799 16.2584 0.387199 16.2584L0.317599 16.252C0.136 16.22 0 16.0616 0 15.872C0 15.6584 0.1736 15.4848 0.387199 15.4848L0.386399 15.484ZM4.25839 15.484L4.32799 15.4904C4.50799 15.5232 4.64559 15.6808 4.64559 15.8712L4.63919 15.9408C4.60639 16.1216 4.44799 16.2584 4.25839 16.2584L4.18879 16.252C4.00799 16.22 3.87119 16.0616 3.87119 15.8712C3.87119 15.6576 4.04399 15.484 4.25839 15.484ZM8.12879 15.484C8.34238 15.484 8.51598 15.6576 8.51598 15.8712C8.51598 15.9424 8.49678 16.0088 8.46318 16.0664L8.42478 16.1208C8.35438 16.2048 8.24798 16.2584 8.12879 16.2584L8.05919 16.252C7.87918 16.22 7.74158 16.0616 7.74158 15.8712C7.74158 15.7048 7.84639 15.5632 7.99358 15.508L8.05919 15.4904L8.12879 15.484ZM12.0008 15.484L12.0696 15.4904C12.2504 15.5232 12.3872 15.6808 12.3872 15.8712L12.3808 15.9408C12.348 16.1216 12.1896 16.2584 12 16.2584L11.9304 16.252C11.7496 16.22 11.6128 16.0616 11.6128 15.8712C11.6128 15.6576 11.7864 15.484 12 15.484H12.0008ZM15.8712 15.484L15.9408 15.4904C16.1208 15.5232 16.2584 15.6808 16.2584 15.8712L16.252 15.9408C16.2192 16.1216 16.0608 16.2584 15.8712 16.2584L15.8016 16.252C15.6208 16.22 15.484 16.0616 15.484 15.8712C15.484 15.6576 15.6568 15.484 15.8712 15.484ZM19.7416 15.484L19.8112 15.4904C19.992 15.5232 20.1288 15.6808 20.1288 15.8712L20.1224 15.9408C20.0904 16.1216 19.932 16.2584 19.7416 16.2584L19.672 16.252C19.492 16.22 19.3552 16.0616 19.3552 15.8712C19.3552 15.6576 19.528 15.484 19.7416 15.484ZM23.6136 15.484L23.6824 15.4904C23.8632 15.5232 24 15.6808 24 15.8712L23.9936 15.9408C23.9616 16.1216 23.8032 16.2584 23.6128 16.2584L23.5432 16.252C23.3632 16.22 23.2256 16.0616 23.2256 15.8712C23.2256 15.6576 23.4 15.484 23.6136 15.484ZM12 11.6128L12.0696 11.6192C12.2504 11.652 12.3872 11.8104 12.3872 12L12.3808 12.0696C12.348 12.2504 12.1896 12.3872 12 12.3872L11.9304 12.3808C11.7496 12.3488 11.6128 12.1896 11.6128 12C11.6128 11.7864 11.7864 11.6128 12 11.6128ZM15.8712 11.6128L15.9408 11.6192C16.1208 11.652 16.2584 11.8104 16.2584 12L16.252 12.0696C16.2192 12.2504 16.0608 12.3872 15.8712 12.3872L15.8016 12.3808C15.6208 12.3488 15.484 12.1896 15.484 12C15.484 11.7864 15.6568 11.6128 15.8712 11.6128ZM23.6128 11.6128L23.6824 11.6192C23.8632 11.652 24 11.8104 24 12L23.9936 12.0696C23.9616 12.2504 23.8032 12.3872 23.6128 12.3872L23.5432 12.3808C23.3632 12.3488 23.2256 12.1896 23.2256 12C23.2256 11.7864 23.3992 11.6128 23.6128 11.6128ZM0.387199 11.6128L0.456799 11.6192C0.636799 11.652 0.774399 11.8104 0.774399 12L0.767999 12.0696C0.735199 12.2504 0.576799 12.3872 0.387199 12.3872L0.317599 12.3808C0.136 12.3488 0 12.1896 0 12C0 11.7864 0.1736 11.6128 0.387199 11.6128ZM19.7416 11.6128L19.8112 11.6192C19.992 11.652 20.1288 11.8104 20.1288 12L20.1224 12.0696C20.0904 12.2504 19.932 12.3872 19.7416 12.3872L19.672 12.3808C19.492 12.3488 19.3552 12.1896 19.3552 12C19.3552 11.7864 19.528 11.6128 19.7416 11.6128ZM8.12879 11.6128L8.19838 11.6192L8.26398 11.6376C8.41118 11.692 8.51598 11.8336 8.51598 12C8.51598 12.1192 8.46238 12.2248 8.37838 12.296L8.32398 12.3344C8.26718 12.368 8.19998 12.3872 8.12879 12.3872L8.05919 12.3808C7.87918 12.3488 7.74158 12.1896 7.74158 12C7.74158 11.7864 7.91519 11.6128 8.12879 11.6128ZM4.25839 11.6128L4.32799 11.6192C4.50799 11.652 4.64559 11.8104 4.64559 12L4.63919 12.0696C4.60639 12.2504 4.44799 12.3872 4.25839 12.3872L4.18879 12.3808C4.00799 12.3488 3.87119 12.1896 3.87119 12C3.87119 11.7864 4.04399 11.6128 4.25839 11.6128ZM4.25839 7.7416L4.32799 7.748C4.50799 7.7808 4.64559 7.9392 4.64559 8.1288L4.63919 8.1984C4.60639 8.3792 4.44799 8.516 4.25839 8.516L4.18879 8.5096C4.00799 8.4776 3.87119 8.3192 3.87119 8.1288C3.87119 7.9152 4.04399 7.7416 4.25839 7.7416ZM0.386399 7.7416L0.456799 7.748C0.636799 7.7808 0.774399 7.9392 0.774399 8.1288L0.767999 8.1984C0.735199 8.3792 0.576799 8.516 0.387199 8.516L0.317599 8.5096C0.136 8.4776 0 8.32 0 8.1288C0 7.9152 0.1736 7.7416 0.387199 7.7416H0.386399ZM23.6128 7.7416L23.6824 7.748C23.8632 7.7808 24 7.9392 24 8.1288L23.9936 8.1984C23.9616 8.3792 23.8032 8.516 23.6128 8.516L23.5432 8.5096C23.3632 8.4776 23.2256 8.3192 23.2256 8.1288C23.2256 7.9152 23.3992 7.7416 23.6128 7.7416ZM8.12879 7.7416L8.19838 7.748C8.37918 7.7808 8.51598 7.9392 8.51598 8.1288L8.50958 8.1984C8.47758 8.3792 8.31918 8.516 8.12879 8.516L8.05919 8.5096C7.87918 8.4776 7.74158 8.3192 7.74158 8.1288C7.74158 7.9152 7.91519 7.7416 8.12879 7.7416ZM15.8712 7.7416L15.9408 7.748C16.1208 7.7808 16.2584 7.9392 16.2584 8.1288L16.252 8.1984C16.2192 8.3792 16.0608 8.516 15.8712 8.516L15.8016 8.5096C15.6208 8.4776 15.484 8.3192 15.484 8.1288C15.484 7.9152 15.6568 7.7416 15.8712 7.7416ZM12 7.7416L12.0696 7.748C12.2504 7.7808 12.3872 7.9392 12.3872 8.1288L12.3808 8.1984C12.348 8.3792 12.1896 8.516 12 8.516L11.9304 8.5096C11.7496 8.4776 11.6128 8.3192 11.6128 8.1288C11.6128 7.9152 11.7864 7.7416 12 7.7416ZM19.7416 7.7416L19.8112 7.748C19.992 7.7808 20.1288 7.9392 20.1288 8.1288L20.1224 8.1984C20.0904 8.3792 19.932 8.516 19.7416 8.516L19.672 8.5096C19.492 8.4776 19.3552 8.3192 19.3552 8.1288C19.3552 7.9152 19.528 7.7416 19.7416 7.7416ZM0.387199 3.872L0.456799 3.8784C0.636799 3.9104 0.774399 4.0688 0.774399 4.2592L0.767999 4.328C0.735199 4.5088 0.576799 4.6456 0.387199 4.6456L0.317599 4.6392C0.136 4.608 0 4.448 0 4.2584C0 4.044 0.1736 3.872 0.387199 3.872ZM4.25839 3.872L4.32799 3.8784C4.50799 3.9104 4.64559 4.0688 4.64559 4.2592L4.63919 4.3288C4.60639 4.5096 4.44799 4.6464 4.25839 4.6464L4.18879 4.64C4.00799 4.608 3.87119 4.4488 3.87119 4.2592C3.87119 4.0448 4.04399 3.872 4.25839 3.872ZM8.12879 3.872L8.19838 3.8784C8.37918 3.9104 8.51598 4.0688 8.51598 4.2592L8.50958 4.3288C8.47758 4.5096 8.31918 4.6464 8.12879 4.6464L8.05919 4.64C7.87918 4.608 7.74158 4.4488 7.74158 4.2592C7.74158 4.0448 7.91519 3.872 8.12879 3.872ZM12.0008 3.872L12.0696 3.8784C12.2504 3.9104 12.3872 4.0688 12.3872 4.2592L12.3808 4.3288C12.348 4.5096 12.1896 4.6464 12 4.6464L11.9304 4.64C11.7496 4.608 11.6128 4.4488 11.6128 4.2592C11.6128 4.0448 11.7864 3.872 12 3.872H12.0008ZM15.8712 3.872L15.9408 3.8784C16.1208 3.9104 16.2584 4.0688 16.2584 4.2592L16.252 4.3288C16.2192 4.5096 16.0608 4.6464 15.8712 4.6464L15.8016 4.64C15.6208 4.608 15.484 4.4488 15.484 4.2592C15.484 4.0448 15.6568 3.872 15.8712 3.872ZM19.7416 3.872L19.8112 3.8784C19.992 3.9104 20.1288 4.0688 20.1288 4.2592L20.1224 4.3288C20.0904 4.5096 19.932 4.6464 19.7416 4.6464L19.672 4.64C19.492 4.608 19.3552 4.4488 19.3552 4.2592C19.3552 4.0448 19.528 3.872 19.7416 3.872ZM23.6136 3.872L23.6824 3.8784C23.8632 3.9104 24 4.0688 24 4.2592L23.9936 4.3288C23.9616 4.5096 23.8032 4.6464 23.6128 4.6464L23.5432 4.64C23.3632 4.608 23.2256 4.4488 23.2256 4.2592C23.2256 4.0448 23.4 3.872 23.6136 3.872ZM0.386399 0L0.455999 0.0064C0.635999 0.0384 0.773598 0.1968 0.773598 0.3872L0.767999 0.456C0.735199 0.6368 0.575999 0.7744 0.387199 0.7744L0.317599 0.768C0.136 0.736 0 0.5768 0 0.3872C0 0.1736 0.1736 0 0.387199 0H0.386399ZM4.25759 0L4.32719 0.0064C4.50719 0.0384 4.64479 0.1968 4.64479 0.3872L4.63919 0.456C4.60639 0.636 4.44799 0.7736 4.25839 0.7736L4.18879 0.768C4.00799 0.736 3.87119 0.5768 3.87119 0.3872C3.87119 0.1736 4.04399 0 4.25839 0H4.25759ZM8.12798 0L8.19758 0.0064C8.37838 0.0384 8.51518 0.1968 8.51518 0.3872L8.50878 0.4568C8.47678 0.6368 8.31838 0.7744 8.12798 0.7744L8.05919 0.768C7.87998 0.736 7.74158 0.5768 7.74158 0.3872C7.74158 0.1736 7.91519 0 8.12879 0H8.12798ZM12 0L12.0688 0.0064C12.2496 0.0384 12.3864 0.1968 12.3864 0.3872L12.38 0.4568C12.3472 0.6368 12.1888 0.7744 11.9992 0.7744L11.9304 0.768C11.7496 0.7352 11.6128 0.5768 11.6128 0.3872C11.6128 0.1736 11.7864 0 12 0ZM15.8704 0L15.94 0.0064C16.12 0.0384 16.2576 0.1968 16.2576 0.3872L16.2512 0.4568C16.2184 0.6368 16.06 0.7744 15.8704 0.7744L15.8016 0.768C15.6208 0.7352 15.484 0.5768 15.484 0.3872C15.484 0.1736 15.6568 0 15.8712 0H15.8704ZM19.7408 0L19.8104 0.0064C19.9912 0.0384 20.128 0.1968 20.128 0.3872L20.1216 0.4568C20.0896 0.6368 19.9312 0.7744 19.7408 0.7744L19.672 0.768C19.492 0.7352 19.3552 0.5768 19.3552 0.3872C19.3552 0.1736 19.528 0 19.7416 0H19.7408ZM23.6128 0L23.6816 0.0064C23.8624 0.0384 23.9992 0.1968 23.9992 0.3872L23.9928 0.4568C23.9608 0.6368 23.8024 0.7744 23.612 0.7744L23.544 0.768C23.364 0.7352 23.2264 0.5768 23.2264 0.3872C23.2264 0.1736 23.3992 0 23.6128 0Z" fill="white"/>
  <path fill-rule="evenodd" clip-rule="evenodd" d="M145.273 16.613C145.338 17.4893 146.143 18.0593 147.364 18.0593L147.512 18.0561C148.384 18.0162 148.984 17.6188 148.984 16.9892L148.978 16.8899C148.9 16.1855 147.982 16.0641 146.867 15.9615L146.738 15.9485C144.735 15.7595 141.901 15.5331 141.901 12.5354C141.901 10.2015 143.995 8.74537 147.169 8.74537L147.383 8.74781C150.363 8.81296 152.547 10.2324 152.547 12.4499H148.962L148.954 12.3416C148.87 11.6307 148.157 11.1649 147.169 11.1649L147.021 11.1689C146.192 11.2105 145.615 11.6046 145.615 12.1706L145.621 12.2602C145.713 13.0094 146.987 13.0558 148.422 13.2211L148.567 13.2366C150.572 13.4598 153 13.9891 153 16.5389L152.996 16.705C152.9 19.0691 150.738 20.5 147.277 20.5L147.051 20.4984C143.836 20.4308 141.835 18.9242 141.835 16.4974H145.269L145.273 16.613ZM51.0474 8.8097L51.2702 8.81214C54.9651 8.89684 57.3308 11.0851 57.3308 14.6129L57.3284 14.8246C57.234 18.3167 54.7947 20.4145 51.0466 20.4145L50.8229 20.412C47.1071 20.3282 44.7413 18.14 44.7413 14.6129C44.7413 10.9938 47.1822 8.8097 51.0474 8.8097ZM105.749 5.64098V9.08822H108.081V11.9361H105.749V15.9615L105.754 16.0943C105.804 16.8777 106.31 17.3964 107.066 17.3964L107.228 17.3907C107.51 17.3744 107.858 17.3174 108.146 17.2458V20.0309L107.898 20.1107C107.208 20.3143 106.32 20.4145 105.706 20.4145L105.52 20.4112C103.187 20.3265 101.69 18.6367 101.69 16.1545V11.9361H100.264V9.08822H101.841L102.575 5.64098H105.749H105.749ZM121.47 8.80889L121.694 8.81214C125.388 8.89684 127.755 11.0851 127.755 14.6129L127.753 14.8246C127.658 18.3167 125.218 20.4145 121.471 20.4145L121.246 20.412C117.532 20.3282 115.166 18.14 115.166 14.6129C115.166 10.9938 117.606 8.8097 121.47 8.8097V8.80889ZM93.6783 8.80889L93.9012 8.81214C97.0793 8.88218 99.1624 10.4507 99.1624 12.8783V20.1368H95.1026V18.8305H94.8863L94.7918 18.9739C94.1329 19.908 92.8531 20.3933 91.4748 20.3933L91.2819 20.3909C89.1842 20.3249 87.7606 19.1783 87.7606 17.2254L87.7639 17.0707C87.847 15.0291 89.5984 13.937 93.1592 13.4565L95.1026 13.2203V12.7285L95.0986 12.6079C95.0477 11.8595 94.5165 11.3579 93.6339 11.3579L93.5096 11.3611C92.6908 11.4116 92.1224 11.9589 92.1224 12.8563H88.2144C88.2144 10.3945 90.3517 8.80889 93.6783 8.80889ZM43.8338 4.80625V8.66067H36.5572V11.2284H42.8406V14.6121H36.5572V20.136H32V4.80544H43.8338V4.80625ZM65.6022 8.87404L65.7887 8.88055C66.1618 8.90661 66.538 9.00678 66.8344 9.15337V12.7081L66.6139 12.6185C66.0164 12.3929 65.3511 12.2577 64.8901 12.2577L64.7552 12.2618C63.5965 12.3294 62.7956 13.2749 62.7956 14.6561V20.1368H58.7576V9.08903H62.7746V10.6526H63.012C63.4867 9.56055 64.4799 8.87404 65.603 8.87404H65.6022ZM75.6233 8.81051L75.8009 8.81459C77.1582 8.88218 78.4089 9.72017 78.9273 10.9303H79.1429L79.2188 10.7699C79.8276 9.55974 81.0032 8.83169 82.5333 8.83169L82.7109 8.83576C84.9508 8.92208 86.5503 10.6314 86.5503 13.1145V20.1376H82.4889V14.0135L82.4857 13.8783C82.4332 12.9369 81.8397 12.213 80.8918 12.1722L80.7666 12.1763C79.8664 12.2382 79.2939 12.9695 79.2939 14.0135V20.1376H75.2333V14.0135L75.2301 13.871C75.18 12.8384 74.5898 12.1722 73.7218 12.1722L73.6007 12.1763C72.7222 12.2366 72.1893 12.9491 72.1893 14.0135V20.1376H68.1521V9.08822H72.1675V10.8652H72.404C73.0532 9.62326 74.2192 8.8097 75.6225 8.8097L75.6233 8.81051ZM113.674 9.0874V20.1376H109.637V9.08659H113.674V9.0874ZM136.565 8.8325L136.742 8.83576C138.958 8.9286 140.497 10.7601 140.497 13.2431V20.1376H136.459V13.9915L136.455 13.8539C136.405 12.8604 135.812 12.1934 134.903 12.1934L134.78 12.1975C133.89 12.261 133.219 13.0119 133.219 14.0559V20.1376H129.18V9.08822H133.219V10.7161H133.435C134.32 9.43025 135.249 8.83169 136.565 8.83169V8.8325ZM95.1026 15.341L93.3101 15.5975L93.1374 15.6219C92.0756 15.7929 91.6476 16.2286 91.6476 16.8394C91.6476 17.5235 92.1652 17.9738 93.051 17.9738L93.1939 17.9706C94.3267 17.907 95.1026 17.0935 95.1026 16.0047V15.341ZM51.0474 12.1714L50.9053 12.1755C49.6449 12.2439 48.8011 13.2293 48.8011 14.6129C48.8011 16.047 49.7087 17.0536 51.0474 17.0536L51.1871 17.0495C52.4297 16.9811 53.2937 15.9957 53.2937 14.6129L53.2896 14.4606C53.2267 13.1071 52.3175 12.1714 51.0474 12.1714ZM121.47 12.1714L121.329 12.1755C120.069 12.2439 119.225 13.2293 119.225 14.6129C119.225 16.047 120.132 17.0536 121.47 17.0536L121.61 17.0495C122.853 16.9811 123.717 15.9957 123.717 14.6129L123.713 14.4606C123.65 13.1071 122.741 12.1714 121.47 12.1714ZM111.645 3.5L111.795 3.50407C113.075 3.56678 113.956 4.44711 113.956 5.68333L113.952 5.82503C113.885 7.03519 112.955 7.88946 111.645 7.88946L111.5 7.88539C110.257 7.82024 109.356 6.92036 109.356 5.68333C109.356 4.39988 110.328 3.5 111.645 3.5Z" fill="white"/>
</svg>
