<svg width="202" height="29" viewBox="0 0 202 29" fill="none"
  xmlns="http://www.w3.org/2000/svg">
  <path fill-rule="evenodd" clip-rule="evenodd" d="M188.956 21.855C189.064 23.3154 190.405 24.2656 192.44 24.2656L192.686 24.2601C194.14 24.1936 195.14 23.5313 195.14 22.4821L195.13 22.3165C195.001 21.1424 193.471 20.9402 191.612 20.7692L191.397 20.7475C188.058 20.4326 183.335 20.0553 183.335 15.0591C183.335 11.1691 186.826 8.74228 192.116 8.74228L192.472 8.74635C197.438 8.85493 201.078 11.2207 201.078 14.9166H195.103L195.09 14.736C194.95 13.5511 193.762 12.7748 192.116 12.7748L191.868 12.7816C190.487 12.8508 189.525 13.5077 189.525 14.451L189.535 14.6003C189.688 15.849 191.812 15.9264 194.203 16.2019L194.445 16.2277C197.787 16.5996 201.833 17.4818 201.833 21.7315L201.827 22.0084C201.666 25.9486 198.064 28.3333 192.296 28.3333L191.919 28.3306C186.561 28.218 183.226 25.707 183.226 21.6623H188.948L188.956 21.855ZM31.9126 8.8495L32.2841 8.85357C38.4421 8.99473 42.3851 12.6418 42.3851 18.5215L42.381 18.8744C42.2236 24.6945 38.1581 28.1908 31.9113 28.1908L31.5385 28.1867C25.3455 28.0469 21.4025 24.3999 21.4025 18.5215C21.4025 12.4897 25.4707 8.8495 31.9126 8.8495ZM123.083 3.5683V9.31369H126.969V14.0601H123.083V20.7692L123.09 20.9904C123.174 22.2961 124.017 23.1607 125.278 23.1607L125.547 23.1512C126.018 23.1241 126.596 23.0291 127.077 22.9096V27.5515L126.664 27.6846C125.513 28.0239 124.034 28.1908 123.01 28.1908L122.701 28.1854C118.811 28.0442 116.316 25.2279 116.316 21.0909V14.0601H113.94V9.31369H116.568L117.793 3.5683H123.081H123.083ZM149.284 8.84814L149.657 8.85357C155.814 8.99473 159.759 12.6418 159.759 18.5215L159.755 18.8744C159.598 24.6945 155.53 28.1908 149.285 28.1908L148.91 28.1867C142.72 28.0469 138.777 24.3999 138.777 18.5215C138.777 12.4897 142.843 8.8495 149.284 8.8495V8.84814ZM102.964 8.84814L103.336 8.85357C108.632 8.9703 112.104 11.5844 112.104 15.6305V27.728H105.338V25.5509H104.977L104.82 25.7898C103.722 27.3466 101.589 28.1555 99.2917 28.1555L98.9701 28.1515C95.4739 28.0415 93.1014 26.1305 93.1014 22.8757L93.1068 22.6178C93.2454 19.2151 96.1643 17.395 102.099 16.5942L105.338 16.2006V15.3808L105.331 15.1799C105.247 13.9325 104.361 13.0964 102.89 13.0964L102.683 13.1019C101.318 13.186 100.371 14.0981 100.371 15.5939H93.8577C93.8577 11.4908 97.4198 8.84814 102.964 8.84814ZM19.8899 2.17709V8.60112H7.76226V12.8806H18.2347V18.5202H7.76226V27.7266H0.166992V2.17573H19.8899V2.17709ZM56.1707 8.95673L56.4815 8.96759C57.1033 9.01102 57.7304 9.17796 58.2243 9.42228V15.3468L57.8569 15.1975C56.861 14.8216 55.7522 14.5962 54.9837 14.5962L54.759 14.603C52.8279 14.7157 51.4929 16.2915 51.4929 18.5935V27.728H44.763V9.31505H51.4579V11.921H51.8536C52.6449 10.1009 54.3001 8.95673 56.172 8.95673H56.1707ZM72.8725 8.85086L73.1685 8.85765C75.4307 8.9703 77.5152 10.3669 78.3792 12.3839H78.7385L78.865 12.1165C79.8797 10.0996 81.839 8.88615 84.3892 8.88615L84.6852 8.89293C88.4183 9.03681 91.0842 11.8857 91.0842 16.0241V27.7293H84.3152V17.5226L84.3098 17.2972C84.2223 15.7282 83.2332 14.5216 81.6533 14.4537L81.4447 14.4605C79.9443 14.5637 78.9901 15.7825 78.9901 17.5226V27.7293H72.2225V17.5226L72.2171 17.285C72.1337 15.564 71.1499 14.4537 69.7033 14.4537L69.5014 14.4605C68.0373 14.561 67.1491 15.7486 67.1491 17.5226V27.7293H60.4205V9.31369H67.1128V12.2753H67.5071C68.589 10.2054 70.5322 8.8495 72.8711 8.8495L72.8725 8.85086ZM136.291 9.31234V27.7293H129.562V9.31098H136.291V9.31234ZM174.442 8.88751L174.737 8.89293C178.431 9.04767 180.995 12.1002 180.995 16.2386V27.7293H174.265V17.4859L174.259 17.2565C174.176 15.6006 173.187 14.489 171.672 14.489L171.467 14.4958C169.984 14.6017 168.866 15.8531 168.866 17.5931V27.7293H162.134V9.31369H168.866V12.0269H169.225C170.7 9.88375 172.249 8.88615 174.442 8.88615V8.88751ZM105.338 19.7349L102.351 20.1625L102.063 20.2032C100.293 20.4882 99.5797 21.2144 99.5797 22.2323C99.5797 23.3725 100.442 24.123 101.919 24.123L102.157 24.1176C104.045 24.0117 105.338 22.6558 105.338 20.8411V19.7349ZM31.9126 14.4524L31.6758 14.4592C29.5751 14.5732 28.1688 16.2155 28.1688 18.5215C28.1688 20.9117 29.6814 22.5893 31.9126 22.5893L32.1455 22.5825C34.2165 22.4685 35.6564 20.8262 35.6564 18.5215L35.6497 18.2677C35.5448 16.0119 34.0295 14.4524 31.9126 14.4524ZM149.284 14.4524L149.049 14.4592C146.948 14.5732 145.542 16.2155 145.542 18.5215C145.542 20.9117 147.054 22.5893 149.284 22.5893L149.517 22.5825C151.589 22.4685 153.028 20.8262 153.028 18.5215L153.022 18.2677C152.916 16.0119 151.402 14.4524 149.284 14.4524ZM132.909 0L133.158 0.00678643C135.291 0.111297 136.761 1.57852 136.761 3.63888L136.754 3.87505C136.642 5.89198 135.092 7.31577 132.909 7.31577L132.667 7.30898C130.595 7.2004 129.094 5.7006 129.094 3.63888C129.094 1.4998 130.713 0 132.909 0Z" fill="#1F3161"/>
</svg>
