<svg width="44" height="38" viewBox="0 0 44 38" fill="none" xmlns="http://www.w3.org/2000/svg">
<path d="M39.875 5.42857C40.9922 5.42857 41.9375 5.85268 42.7969 6.61607C43.5703 7.46429 44 8.39732 44 9.5V33.9286C44 35.1161 43.5703 36.0491 42.7969 36.8125C41.9375 37.6607 40.9922 38 39.875 38H4.125C2.92188 38 1.97656 37.6607 1.20312 36.8125C0.34375 36.0491 0 35.1161 0 33.9286V9.5C0 8.39732 0.34375 7.46429 1.20312 6.61607C1.97656 5.85268 2.92188 5.42857 4.125 5.42857H13.75V2.03571C13.75 1.52679 13.9219 1.01786 14.3516 0.59375C14.6953 0.254464 15.2109 0 15.8125 0H28.1875C28.7031 0 29.2188 0.254464 29.6484 0.59375C29.9922 1.01786 30.25 1.52679 30.25 2.03571V5.42857H39.875ZM16.5 2.71429V5.42857H27.5V2.71429H16.5ZM33 8.14286H11V35.2857H33V8.14286ZM2.75 33.9286C2.75 34.3527 2.83594 34.692 3.09375 34.9464C3.35156 35.2009 3.69531 35.2857 4.125 35.2857H8.25V8.14286H4.125C3.69531 8.14286 3.35156 8.3125 3.09375 8.56696C2.83594 8.82143 2.75 9.16071 2.75 9.5V33.9286ZM41.25 33.9286V9.5C41.25 9.16071 41.0781 8.82143 40.8203 8.56696C40.5625 8.3125 40.2188 8.14286 39.875 8.14286H35.75V35.2857H39.875C40.2188 35.2857 40.5625 35.2009 40.8203 34.9464C41.0781 34.692 41.25 34.3527 41.25 33.9286ZM30.25 20.3571C30.25 20.1027 30.0781 19.8482 29.9062 19.6786C29.7344 19.5089 29.4766 19.3393 29.2188 19.3393H24.4062V14.5893C24.4062 14.3348 24.2344 14.0804 24.0625 13.9107C23.8906 13.7411 23.6328 13.5714 23.375 13.5714H20.625C20.2812 13.5714 20.0234 13.7411 19.8516 13.9107C19.6797 14.0804 19.5938 14.3348 19.5938 14.5893V19.3393H14.7812C14.4375 19.3393 14.1797 19.5089 14.0078 19.6786C13.8359 19.8482 13.75 20.1027 13.75 20.3571V23.0714C13.75 23.4107 13.8359 23.6652 14.0078 23.8348C14.1797 24.0045 14.4375 24.0893 14.7812 24.0893H19.5938V28.8393C19.5938 29.1786 19.6797 29.433 19.8516 29.6027C20.0234 29.7723 20.2812 29.8571 20.625 29.8571H23.375C23.6328 29.8571 23.8906 29.7723 24.0625 29.6027C24.2344 29.433 24.4062 29.1786 24.4062 28.8393V24.0893H29.2188C29.4766 24.0893 29.7344 24.0045 29.9062 23.8348C30.0781 23.6652 30.25 23.4107 30.25 23.0714V20.3571Z" fill="#4493FB"/>
</svg>
