<svg width="36" height="35" viewBox="0 0 36 35" fill="none" xmlns="http://www.w3.org/2000/svg">
<path d="M17.9825 0C8.3225 0 0.5 7.84 0.5 17.5C0.5 27.16 8.3225 35 17.9825 35C27.66 35 35.5 27.16 35.5 17.5C35.5 7.84 27.66 0 17.9825 0ZM18 31.5C10.265 31.5 4 25.235 4 17.5C4 9.765 10.265 3.5 18 3.5C25.735 3.5 32 9.765 32 17.5C32 25.235 25.735 31.5 18 31.5ZM18 25.375C19.2775 25.375 20.4325 25.7075 21.4475 26.3025C21.6575 26.0575 22.9525 24.5875 23.215 24.3075C21.7275 23.3275 19.9425 22.75 18 22.75C16.0575 22.75 14.2725 23.3275 12.7675 24.29C14.465 26.1975 12.785 24.325 14.535 26.285C15.5675 25.7075 16.7225 25.375 18 25.375Z" fill="#4493FB"/>
</svg>
