<svg width="44" height="28" viewBox="0 0 44 28" fill="none" xmlns="http://www.w3.org/2000/svg">
<path d="M31 16C28.6 16 24.86 16.68 22 18C19.14 16.66 15.4 16 13 16C8.66 16 0 18.16 0 22.5V28H44V22.5C44 18.16 35.34 16 31 16ZM23 25H3V22.5C3 21.42 8.12 19 13 19C17.88 19 23 21.42 23 22.5V25ZM41 25H26V22.5C26 21.58 25.6 20.78 24.96 20.06C26.72 19.46 28.88 19 31 19C35.88 19 41 21.42 41 22.5V25ZM13 14C16.86 14 20 10.86 20 7C20 3.14 16.86 0 13 0C9.14 0 6 3.14 6 7C6 10.86 9.14 14 13 14ZM13 3C15.2 3 17 4.8 17 7C17 9.2 15.2 11 13 11C10.8 11 9 9.2 9 7C9 4.8 10.8 3 13 3ZM31 14C34.86 14 38 10.86 38 7C38 3.14 34.86 0 31 0C27.14 0 24 3.14 24 7C24 10.86 27.14 14 31 14ZM31 3C33.2 3 35 4.8 35 7C35 9.2 33.2 11 31 11C28.8 11 27 9.2 27 7C27 4.8 28.8 3 31 3Z" fill="#4493FB"/>
</svg>
