<svg width="50" height="44" viewBox="0 0 50 44" fill="none" xmlns="http://www.w3.org/2000/svg">
<path d="M37.3924 22C36.6189 22 36.0174 22.6875 36.0174 23.375C36.0174 24.1484 36.6189 24.75 37.3924 24.75C38.0799 24.75 38.7674 24.1484 38.7674 23.375C38.7674 22.6875 38.0799 22 37.3924 22ZM48.3924 19.25H45.8143C44.8689 17.1016 43.3221 15.2969 41.5174 13.8359V8.25H40.1424C37.4783 8.25 35.158 9.19531 33.1814 10.5703C33.1814 10.2266 33.2674 9.96875 33.2674 9.625C33.2674 4.38281 28.8846 0 23.6424 0C18.3143 0 14.0174 4.38281 14.0174 9.625C14.0174 10.4844 14.1033 11.2578 14.3611 12.0312C10.1502 13.75 6.9705 17.4453 6.02519 22H5.07988C3.79082 22 2.75957 20.8828 3.01738 19.5938C3.18925 18.5625 4.13457 17.875 5.16582 17.875H5.25175C5.50957 17.875 5.76738 17.7031 5.76738 17.3594V15.6406C5.76738 15.3828 5.50957 15.125 5.25175 15.125C2.75957 15.125 0.611129 16.9297 0.267379 19.3359C-0.0763713 22.2578 2.158 24.75 5.07988 24.75H5.76738C5.76738 29.3047 7.91582 33.2578 11.2674 35.75V42.625C11.2674 43.3984 11.8689 44 12.6424 44H22.2674C22.9549 44 23.6424 43.3984 23.6424 42.625V38.5H29.1424V42.625C29.1424 43.3984 29.7439 44 30.5174 44H40.1424C40.8299 44 41.5174 43.3984 41.5174 42.625V35.75C42.4627 34.9766 43.408 34.0312 44.1814 33H48.3924C49.0799 33 49.7674 32.3984 49.7674 31.625V20.625C49.7674 19.9375 49.0799 19.25 48.3924 19.25ZM23.6424 2.75C27.4236 2.75 30.5174 5.84375 30.5174 9.625C30.5174 10.1406 30.4314 10.5703 30.3455 11H19.5174C18.5721 11 17.7986 11.1719 16.9393 11.2578C16.7674 10.7422 16.7674 10.2266 16.7674 9.625C16.7674 5.84375 19.7752 2.75 23.6424 2.75ZM47.0174 30.25H42.8064C41.3455 32.2266 41.3455 32.3984 38.7674 34.375V41.25H31.8924V35.75H20.8924V41.25H14.0174V34.375C8.43144 30.1641 8.51738 26.2969 8.51738 24.75C8.51738 18.7344 13.4158 13.75 19.5174 13.75H33.3533C34.8143 12.6328 36.1893 11.5156 38.7674 11.1719V15.2109C42.1189 17.7891 42.5486 18.5625 44.0096 22H47.0174V30.25Z" fill="#4493FB"/>
</svg>
