<svg width="20" height="20" viewBox="0 0 20 20" fill="none" xmlns="http://www.w3.org/2000/svg">
<path fill-rule="evenodd" clip-rule="evenodd" d="M10 20C15.5228 20 20 15.5228 20 10C20 4.47715 15.5228 0 10 0C4.47715 0 0 4.47715 0 10C0 15.5228 4.47715 20 10 20ZM10.0909 3V4.90909C12.9036 4.90909 15.1818 7.18727 15.1818 10C15.1818 10.9991 14.8891 11.9282 14.3927 12.7109L13.4636 11.7818C13.75 11.2536 13.9091 10.6427 13.9091 10C13.9091 7.89364 12.1973 6.18182 10.0909 6.18182V8.09091L7.54545 5.54545L10.0909 3ZM6.27273 10C6.27273 12.1064 7.98455 13.8182 10.0909 13.8182V11.9091L12.6364 14.4545L10.0909 17V15.0909C7.27818 15.0909 5 12.8127 5 10C5 9.00091 5.29273 8.07182 5.78909 7.28909L6.71818 8.21818C6.43182 8.74636 6.27273 9.35727 6.27273 10Z" fill="#4493FB"/>
</svg>
