<svg width="34" height="38" viewBox="0 0 34 38" fill="none" xmlns="http://www.w3.org/2000/svg">
<path d="M33.3798 7.0918C33.677 8.57777 33.7513 10.0637 33.4541 11.4754C33.1569 12.8871 32.6368 14.1502 31.7452 15.3389C30.2593 17.345 29.3677 20.0197 29.0705 23.2889C28.6247 27.4496 28.1046 30.8673 27.5102 33.6907L26.9158 36.2168C26.7672 36.8112 26.5443 37.257 26.0985 37.5542C25.6527 37.8514 25.207 38 24.6869 38C24.1668 38 23.721 37.8514 23.3495 37.5542C22.9037 37.257 22.6808 36.8112 22.5322 36.2911L20.0061 25.9636C19.7832 25.3692 19.4117 24.7749 18.8916 24.3291C18.2972 23.8833 17.7028 23.6604 17.0341 23.6604C16.2911 23.6604 15.6967 23.8833 15.1766 24.3291C14.5823 24.7749 14.2108 25.3692 14.0622 25.9636L11.536 36.2911C11.3874 36.8112 11.0902 37.257 10.7187 37.5542C10.2729 37.8514 9.82715 38 9.30706 38C8.78697 38 8.34118 37.8514 7.89539 37.5542C7.44959 37.257 7.2267 36.8112 7.1524 36.2168L6.55801 33.6907C5.88932 30.8673 5.36923 27.4496 4.99774 23.2889C4.70055 20.0197 3.80896 17.345 2.32299 15.3389C1.43141 14.1502 0.837022 12.8871 0.539827 11.4754C0.242633 10.0637 0.316932 8.57777 0.688425 7.0918C1.05992 5.45723 1.8772 3.97126 3.14028 2.70818C4.32905 1.44511 5.81503 0.627823 7.52389 0.182031C9.52995 -0.338058 11.7589 0.25633 14.1365 1.9652C15.1766 2.78248 16.3654 3.07968 17.6285 2.93108C18.4458 2.78248 19.1888 2.48529 19.9318 1.9652C22.235 0.25633 24.464 -0.338058 26.5443 0.182031C28.1789 0.627823 29.6649 1.44511 30.9279 2.70818C32.1167 3.97126 32.934 5.45723 33.3798 7.0918ZM29.8878 13.9273C30.4821 13.0357 30.9279 12.0698 31.1508 10.9553C31.2994 9.91514 31.2994 8.80066 31.0765 7.68619C30.7793 6.42311 30.1107 5.30863 29.2191 4.34275C28.2532 3.45117 27.1387 2.78248 25.8756 2.48529C24.5383 2.18809 23.0523 2.63388 21.3434 3.89696C20.5261 4.49135 19.6346 4.86284 18.6687 5.08574L20.0804 6.12592C20.3775 6.34881 20.5261 6.64601 20.6004 6.9432C20.6004 7.24039 20.5261 7.53759 20.3775 7.76048C20.2289 7.98338 20.0061 8.13198 19.7832 8.20628C19.4117 8.35487 19.0402 8.35487 18.743 8.05768L12.7248 3.89696C10.9416 2.63388 9.45566 2.18809 8.19258 2.48529C6.85521 2.78248 5.74073 3.45117 4.84914 4.34275C3.88326 5.30863 3.28887 6.42311 2.99168 7.68619C2.69449 8.80066 2.69449 9.91514 2.91738 10.9553C3.06598 12.0698 3.51177 13.0357 4.18046 13.9273C5.96362 16.3048 7.0038 19.3511 7.3753 23.066C7.67249 27.0781 8.19258 30.4958 8.86127 33.1706L9.45566 35.6967L11.7589 25.4435C12.0561 24.2548 12.6505 23.2146 13.6907 22.4716C14.6566 21.7286 15.771 21.2828 17.0341 21.2828C18.2229 21.2828 19.3374 21.7286 20.3775 22.4716C21.3434 23.2146 22.0121 24.2548 22.3093 25.4435L24.7612 35.251L25.207 33.1706C25.8013 30.4958 26.3214 27.0781 26.6929 23.066C26.9901 19.3511 28.1046 16.3048 29.8878 13.9273Z" fill="#4493FB"/>
</svg>
